<svg width="25" height="25" viewBox="0 0 35 35" fill="none" xmlns="http://www.w3.org/2000/svg">
<path fill-rule="evenodd" clip-rule="evenodd" d="M3.28125 17.5C3.28125 16.8959 3.77094 16.4062 4.375 16.4062H21.422L16.7266 11.7109C16.2995 11.2838 16.2995 10.5912 16.7266 10.1641C17.1537 9.73697 17.8463 9.73697 18.2734 10.1641L24.8359 16.7266C25.263 17.1537 25.263 17.8463 24.8359 18.2734L18.2734 24.8359C17.8463 25.263 17.1537 25.263 16.7266 24.8359C16.2995 24.4088 16.2995 23.7162 16.7266 23.2891L21.422 18.5938H4.375C3.77094 18.5938 3.28125 18.1041 3.28125 17.5ZM22.9688 30.625C22.9688 30.0209 23.4584 29.5312 24.0625 29.5312H27.3438C28.5519 29.5312 29.5312 28.5519 29.5312 27.3438V7.65625C29.5312 6.44813 28.5519 5.46875 27.3438 5.46875H24.0625C23.4584 5.46875 22.9688 4.97906 22.9688 4.375C22.9688 3.77094 23.4584 3.28125 24.0625 3.28125H27.3438C29.76 3.28125 31.7188 5.24 31.7188 7.65625V27.3438C31.7188 29.76 29.76 31.7188 27.3438 31.7188H24.0625C23.4584 31.7188 22.9688 31.2291 22.9688 30.625Z" fill="#0F172A"/>
</svg>
