<svg width="25" height="25" viewBox="0 0 35 35" fill="none" xmlns="http://www.w3.org/2000/svg">
<path fill-rule="evenodd" clip-rule="evenodd" d="M4.375 9.84375C4.375 9.23969 4.86469 8.75 5.46875 8.75H29.5312C30.1353 8.75 30.625 9.23969 30.625 9.84375C30.625 10.4478 30.1353 10.9375 29.5312 10.9375H5.46875C4.86469 10.9375 4.375 10.4478 4.375 9.84375ZM4.375 17.5C4.375 16.8959 4.86469 16.4062 5.46875 16.4062H29.5312C30.1353 16.4062 30.625 16.8959 30.625 17.5C30.625 18.1041 30.1353 18.5938 29.5312 18.5938H5.46875C4.86469 18.5938 4.375 18.1041 4.375 17.5ZM4.375 25.1562C4.375 24.5522 4.86469 24.0625 5.46875 24.0625H29.5312C30.1353 24.0625 30.625 24.5522 30.625 25.1562C30.625 25.7603 30.1353 26.25 29.5312 26.25H5.46875C4.86469 26.25 4.375 25.7603 4.375 25.1562Z" fill="#0F172A"/>
</svg>
